<svg version="1.1" id="Layer_1" xmlns="http://www.w3.org/2000/svg" xmlns:xlink="http://www.w3.org/1999/xlink" x="0px" y="0px"
	 width="100%" viewBox="0 0 832 720" enable-background="new 0 0 832 720" xml:space="preserve">
<path fill="#000000" opacity="1.000000" stroke="none" 
	d="
M247.287567,539.671997 
	C231.812027,517.139771 219.741943,493.287506 211.243515,467.687164 
	C209.838852,463.455780 208.168854,461.948029 203.406860,462.708130 
	C189.508865,464.926636 175.981354,462.195770 166.445969,451.923492 
	C152.884216,437.313751 153.442093,421.056183 169.712036,405.861908 
	C176.033386,399.958527 183.783707,396.221161 192.015884,393.951355 
	C197.022369,392.570923 198.732605,389.742432 198.729050,385.072418 
	C198.719376,372.318542 201.008987,359.896332 204.760788,347.786285 
	C212.468262,322.908234 226.424622,302.889801 250.504288,291.273651 
	C261.305481,286.063080 272.797241,283.646912 284.874939,283.984009 
	C291.283936,284.162903 291.867035,283.173889 289.212280,277.518494 
	C277.100525,251.717178 257.644897,233.339050 231.883438,221.578430 
	C213.783279,213.315323 194.703857,209.548813 174.767960,208.986618 
	C143.897552,208.116104 114.653206,214.490234 86.534225,226.847733 
	C69.997467,234.115173 54.440838,243.023605 40.226616,254.215027 
	C39.444706,254.830658 38.599041,255.413223 37.244331,254.998535 
	C35.601044,251.350220 37.316822,249.123566 40.341457,246.911575 
	C69.780853,225.381927 102.439850,211.609894 138.431595,205.648880 
	C172.321793,200.035934 205.311401,202.877655 236.526901,217.607239 
	C264.165436,230.649002 284.722748,251.147644 296.376801,279.823792 
	C297.782074,283.281555 299.725830,285.003296 303.411377,285.861694 
	C324.678650,290.814911 342.581909,301.982635 358.910217,316.143341 
	C374.227356,329.427124 387.396057,344.496002 398.324402,361.556183 
	C400.979767,365.701477 402.305603,365.698456 404.523285,361.639893 
	C417.890350,337.176605 434.790497,315.472931 455.214661,296.497772 
	C473.993866,279.050842 495.030945,265.217407 519.544678,257.320343 
	C544.863098,249.164062 570.558777,247.439331 596.201477,255.706131 
	C624.503235,264.830170 644.397217,283.274323 655.459717,311.037445 
	C668.581726,343.969391 668.804077,377.601746 660.729797,411.604919 
	C649.999084,456.794891 627.757996,496.037445 598.224854,531.442505 
	C581.870789,551.048218 564.016052,569.166931 544.428772,585.565918 
	C543.082153,586.693359 541.404541,587.687927 541.072937,590.068237 
	C545.899841,592.702026 551.483276,593.122253 556.660095,594.395325 
	C606.270996,606.595215 655.622498,619.858521 705.511108,630.924133 
	C737.205566,637.954102 769.047485,644.227600 801.084656,649.482910 
	C804.329712,650.015259 806.144592,651.049561 804.911499,654.668091 
	C803.432373,655.977295 801.729919,655.303589 800.159973,655.057129 
	C774.512573,651.032288 748.968201,646.314514 723.640015,640.723877 
	C686.110352,632.440002 648.713806,623.522156 611.492554,613.893372 
	C587.478882,607.681152 563.325928,602.008728 539.276123,595.933289 
	C534.610107,594.754578 531.264099,595.691711 527.542053,598.952454 
	C521.829590,603.956970 515.403809,608.180298 509.083893,612.443359 
	C506.173004,614.406921 505.314972,616.391479 506.062683,619.911804 
	C508.665558,632.166870 510.532013,644.508911 507.196503,656.976257 
	C502.602051,674.149109 491.176575,684.998108 471.025421,686.442139 
	C447.037415,688.161194 424.909454,681.263306 403.466461,671.900574 
	C395.956696,668.621460 389.180603,668.130493 381.344391,669.699951 
	C357.935852,674.388245 334.408325,675.232483 311.054871,669.143738 
	C297.713104,665.665222 285.680878,659.688232 277.418610,648.158386 
	C267.317230,634.062073 267.983459,617.294250 278.821533,603.740540 
	C280.999390,601.017029 283.291168,598.311707 285.907471,596.030457 
	C289.023315,593.313599 289.055817,591.196655 286.189789,588.199463 
	C271.896576,573.252258 258.982208,557.177124 247.287567,539.671997 
M581.303894,541.805237 
	C614.151550,505.518219 640.124207,465.223236 653.048157,417.481628 
	C662.214294,383.621307 663.312561,349.760223 651.070862,316.314911 
	C635.069885,272.598724 595.676575,254.592346 555.821716,256.661621 
	C532.918701,257.850739 511.696533,264.596497 492.064606,276.398071 
	C454.401855,299.038757 427.595184,331.579224 406.938080,369.738159 
	C405.524109,372.350159 405.773163,374.490662 407.165894,377.167969 
	C423.781982,409.109314 432.564972,442.879578 430.183899,479.105255 
	C429.880493,483.721283 430.954376,487.274414 433.999847,490.886810 
	C455.981476,516.960632 474.934418,545.079895 490.054718,575.694824 
	C491.480774,578.582214 493.452667,579.919556 496.423096,580.548218 
	C506.193634,582.616089 515.982971,584.627563 525.670349,587.040833 
	C529.837708,588.078918 532.947815,587.269470 536.220154,584.581360 
	C552.090210,571.544617 566.718628,557.218201 581.303894,541.805237 
M433.291992,499.259796 
	C431.911194,497.731781 430.978729,495.646088 428.435577,495.170532 
	C425.355194,504.332947 423.100342,513.595886 416.842255,521.157349 
	C409.998047,529.426941 399.362946,530.687988 391.246368,523.710022 
	C385.219391,518.528442 381.801056,511.653442 379.758667,504.169708 
	C374.877167,486.282990 374.032928,468.046539 376.066162,449.694183 
	C376.467224,446.074188 375.868774,443.667145 372.761353,441.679962 
	C368.274445,438.810608 364.034027,435.557556 359.568085,432.653351 
	C338.071167,418.673767 315.202209,407.727997 290.440857,400.708618 
	C285.716431,399.369293 283.659302,400.526764 281.170532,404.241333 
	C265.146698,428.157196 245.950027,448.572876 218.456177,459.504669 
	C216.193207,460.404480 215.372330,461.849457 216.067657,464.183197 
	C216.684494,466.253540 217.146149,468.377930 217.881409,470.404022 
	C225.237473,490.674652 234.753464,509.889435 246.214767,528.148743 
	C259.284302,548.970276 274.571808,568.042542 291.473724,585.865845 
	C293.683929,588.196533 295.460907,588.664368 298.300201,586.920410 
	C301.547882,584.925598 305.087799,583.360229 308.610199,581.866455 
	C333.888794,571.146179 360.663574,568.101501 387.717529,567.173279 
	C411.439331,566.359314 434.899597,569.600098 458.293274,573.241394 
	C466.447357,574.510559 474.467468,576.757202 484.128815,577.207153 
	C470.137665,548.772461 452.631378,523.844849 433.291992,499.259796 
M343.801605,631.677307 
	C358.413025,642.216980 373.835999,651.416199 389.816650,659.716492 
	C392.488617,661.104248 394.882568,661.365479 397.863159,660.594849 
	C420.396973,654.769348 441.652344,645.775818 462.206879,635.014648 
	C473.129822,629.296021 483.656921,622.888428 493.957275,616.123962 
	C496.115723,614.706482 499.279449,613.648621 497.682953,609.670349 
	C494.957153,602.878113 492.493958,595.979980 489.948608,589.115906 
	C488.795288,586.005676 486.651947,584.428101 483.324402,583.887756 
	C475.938995,582.688599 468.611603,581.137146 461.239502,579.849548 
	C443.045258,576.671631 424.767670,574.109131 406.293793,573.338745 
	C389.969757,572.658020 373.658752,573.223267 357.474915,575.442688 
	C339.970184,577.843201 322.674927,581.220398 306.651031,589.229004 
	C299.031342,593.037170 298.934143,593.588562 304.862457,599.337524 
	C316.841187,610.953857 329.746918,621.445801 343.801605,631.677307 
M361.797516,326.697937 
	C346.480957,312.596252 329.976074,300.383575 309.858765,293.866058 
	C302.005157,291.321655 301.433655,291.893188 302.730713,299.897034 
	C303.820435,306.621643 305.049744,313.329376 305.293976,320.189178 
	C306.148254,344.178192 300.732239,366.747040 290.203217,388.181213 
	C288.598022,391.448975 287.729767,393.663208 292.588165,395.075623 
	C321.319275,403.428131 347.613647,416.867279 372.134979,433.901093 
	C373.590881,434.912445 374.923401,436.309692 377.217804,436.162201 
	C377.596558,435.153992 378.159119,434.127899 378.366486,433.034485 
	C382.016724,413.786621 388.233276,395.369537 396.471588,377.635651 
	C398.111511,374.105621 397.302094,371.367371 395.428406,368.344360 
	C386.077911,353.258118 375.072571,339.521423 361.797516,326.697937 
M298.753906,314.606628 
	C298.425232,308.432220 297.012817,302.451019 295.823639,296.405975 
	C294.761047,291.004333 291.596252,289.352203 286.737976,289.355316 
	C262.148285,289.371094 241.547852,297.969604 226.170029,317.651978 
	C214.138626,333.051178 208.158066,350.943665 205.495819,369.997894 
	C204.619476,376.269958 203.118057,382.715912 204.811127,389.126953 
	C205.630737,389.269623 206.138718,389.497925 206.591232,389.416840 
	C230.365509,385.154694 253.999802,386.212738 277.510010,391.339294 
	C280.566345,392.005737 282.248077,390.689423 283.513214,388.218658 
	C295.210388,365.374481 301.436249,341.380951 298.753906,314.606628 
M326.826263,666.731079 
	C345.338348,668.651550 363.665436,667.898315 382.457947,663.698608 
	C381.436829,662.520203 381.180908,662.055725 380.788483,661.804077 
	C379.673096,661.088684 378.511871,660.442505 377.351440,659.800110 
	C349.855713,644.578430 324.658112,626.213379 301.776459,604.662231 
	C292.711090,596.124084 295.258911,594.144470 284.880432,604.954529 
	C271.299377,619.100342 273.131165,639.617859 288.350372,651.893799 
	C299.391663,660.799744 312.290985,664.564636 326.826263,666.731079 
M483.461884,678.039185 
	C487.893311,676.312744 491.732513,673.718567 494.686432,669.978577 
	C506.938385,654.466064 503.279510,637.243896 500.670044,618.896484 
	C470.037476,638.838562 438.842316,655.007996 403.683289,665.504517 
	C405.812683,666.820679 406.460114,667.350769 407.200043,667.658813 
	C419.823364,672.914124 432.644073,677.577148 446.238922,679.616211 
	C458.470520,681.450867 470.713226,682.520508 483.461884,678.039185 
M260.282257,421.778687 
	C266.583649,414.372192 273.049774,407.081421 277.494812,398.299103 
	C275.326447,396.781860 273.350922,396.454590 271.404663,396.100098 
	C251.108002,392.403412 230.788773,391.831116 210.333130,395.024750 
	C205.468674,395.784210 203.839371,397.580017 204.138336,402.411133 
	C205.086349,417.730804 207.343002,432.817749 211.087234,447.699921 
	C212.968994,455.179382 213.392227,455.397369 220.319504,452.297668 
	C235.819519,445.362122 248.469406,434.707123 260.282257,421.778687 
M410.448273,398.008636 
	C407.996826,392.257507 405.497498,386.531097 402.022888,380.843506 
	C401.339325,381.775513 400.872162,382.239258 400.607391,382.798798 
	C392.306030,400.340515 387.004333,418.818451 383.399445,437.833405 
	C382.767181,441.168365 384.517029,443.100739 386.865875,444.943726 
	C398.664185,454.200775 409.529846,464.487152 420.055756,475.146729 
	C421.062836,476.166595 421.728973,477.710419 424.335938,477.749054 
	C426.512939,450.203674 420.798584,424.113922 410.448273,398.008636 
M418.932343,505.365173 
	C419.951935,501.851898 420.844025,498.295197 422.021942,494.835846 
	C423.650757,490.052521 422.674530,486.173920 418.978485,482.648712 
	C411.871429,475.870087 405.144287,468.684662 397.898712,462.062805 
	C393.338226,457.894867 388.938690,453.336121 383.260590,450.346802 
	C382.666229,451.320282 382.300568,451.701904 382.187134,452.147675 
	C381.900452,453.274261 381.587372,454.422699 381.529755,455.574646 
	C380.846588,469.238434 380.883881,482.875336 383.800842,496.330109 
	C385.471497,504.036011 387.897247,511.500824 393.295654,517.501587 
	C399.235779,524.104553 406.341400,523.939453 412.137756,517.255676 
	C415.002838,513.951904 417.001953,510.110382 418.932343,505.365173 
M199.061783,415.088104 
	C198.244995,409.630096 199.423508,403.881744 197.008759,398.208221 
	C186.444855,400.990662 177.074249,405.193573 170.030823,413.065704 
	C159.286407,425.074402 160.873032,441.275940 173.597198,450.659271 
	C182.294128,457.072754 192.302353,458.851776 202.959106,457.286224 
	C206.232040,456.805420 207.065903,455.262726 206.122147,452.119263 
	C202.579330,440.318756 200.865341,428.155151 199.061783,415.088104 
M499.424683,597.134644 
	C501.159332,600.668335 501.633148,604.757935 504.345337,608.528442 
	C511.328217,604.154053 517.904663,599.598328 524.458008,593.444519 
	C514.992371,590.388184 506.151855,588.180908 495.973114,587.091248 
	C497.373688,591.117310 498.290802,593.753601 499.424683,597.134644 
z"/>
<path fill="#000000" opacity="1.000000" stroke="none" 
	d="
M486.047974,168.977173 
	C486.017883,161.983383 485.883789,155.482544 486.013947,148.986984 
	C486.078278,145.775940 484.791229,144.396896 481.638885,144.458511 
	C478.173065,144.526245 474.704956,144.473953 471.178802,144.473953 
	C470.198700,141.236038 469.831055,139.310272 473.887207,138.382797 
	C477.845703,137.477646 479.189819,133.178528 481.260590,130.055710 
	C482.182709,128.665176 480.855133,127.601776 479.752289,126.797623 
	C478.002411,125.521599 476.250031,124.245705 474.449921,123.042725 
	C472.358673,121.645195 472.106110,120.058167 473.555634,117.996849 
	C477.292847,112.682304 480.940430,107.304794 484.661957,101.979111 
	C485.799286,100.351593 487.142029,99.251511 489.246063,100.665573 
	C491.563019,102.222755 490.919312,103.897163 489.688354,105.768463 
	C486.780243,110.189392 483.185089,114.169197 480.925079,118.927467 
	C485.280029,123.932304 485.790527,123.908897 489.353455,118.826538 
	C491.074921,116.370972 492.906433,113.989159 494.549164,111.482895 
	C495.810028,109.559235 497.164825,109.120079 499.088562,110.514503 
	C501.023041,111.916718 500.896301,113.327980 499.592651,115.162834 
	C494.865112,121.816742 490.237549,128.541794 485.595734,135.256256 
	C485.142395,135.912033 484.850708,136.679626 484.311432,137.732086 
	C488.441711,139.211914 492.247437,138.729614 496.067444,138.143631 
	C496.752319,135.748062 495.020477,134.534988 494.209625,133.011734 
	C493.296356,131.296066 493.172882,129.890839 495.001373,128.730789 
	C496.653442,127.682686 498.165039,127.621765 499.322449,129.385193 
	C502.246887,133.840668 505.157043,138.306519 507.992950,142.818466 
	C508.849335,144.181030 509.049713,145.603470 507.412170,146.744125 
	C505.809998,147.860138 504.358826,148.049133 503.068787,146.354797 
	C500.621307,143.140259 497.266296,144.507202 494.268005,144.785446 
	C491.663483,145.027130 492.195862,147.453949 492.184479,149.171906 
	C492.124817,158.169998 492.188080,167.168869 492.146088,176.167175 
	C492.135498,178.434982 492.575989,181.279999 488.984772,181.179916 
	C485.398590,181.079941 486.115723,178.195068 486.044586,175.970657 
	C485.975372,173.806824 486.044556,171.638580 486.047974,168.977173 
z"/>
<path fill="#000000" opacity="1.000000" stroke="none" 
	d="
M325.996643,185.320587 
	C314.837433,185.323715 304.176025,185.211807 293.519409,185.388855 
	C289.253387,185.459747 287.674164,183.961182 287.700867,179.569550 
	C287.852631,154.585602 287.758636,129.600220 287.775269,104.615334 
	C287.776764,102.345558 287.286682,99.583275 290.931213,99.635880 
	C294.523987,99.687744 294.070862,102.489769 294.074921,104.724838 
	C294.115845,127.204742 294.091492,149.684753 294.099274,172.164734 
	C294.101562,178.788986 294.121216,178.700058 300.736389,178.669098 
	C312.725220,178.613007 324.714661,178.669693 336.703796,178.695587 
	C337.700256,178.697739 338.697540,178.810562 339.692566,178.894272 
	C341.862335,179.076843 343.093536,180.157608 342.921692,182.443787 
	C342.763794,184.544342 341.349365,185.239197 339.487732,185.258560 
	C335.157532,185.303635 330.826874,185.303375 325.996643,185.320587 
z"/>
<path fill="#000000" opacity="1.000000" stroke="none" 
	d="
M544.723145,146.801910 
	C548.740540,146.440231 549.911926,148.356064 549.901978,151.573807 
	C549.876282,159.901047 549.900879,168.228546 549.929260,176.555847 
	C549.940125,179.753326 548.750916,181.414047 545.195496,181.366379 
	C534.704407,181.225708 524.208618,181.224106 513.717896,181.382507 
	C509.910126,181.440002 508.797913,179.715576 508.844788,176.241745 
	C508.950378,168.415192 509.067291,160.578857 508.784973,152.760773 
	C508.621246,148.226685 510.133331,146.541046 514.777161,146.676743 
	C524.596008,146.963669 534.428406,146.786377 544.723145,146.801910 
M543.710632,170.120041 
	C543.709412,165.799225 543.639709,161.476929 543.732422,157.158127 
	C543.789246,154.511185 542.870544,153.114014 540.021301,153.142334 
	C533.042419,153.211716 526.061890,153.207947 519.082825,153.146423 
	C516.339844,153.122253 515.170044,154.341263 515.208069,157.052307 
	C515.273376,161.704117 515.302185,166.359406 515.194275,171.009705 
	C515.119568,174.228561 516.728516,175.555313 519.724548,175.566971 
	C526.204834,175.592209 532.685425,175.621155 539.165405,175.576508 
	C542.104797,175.556259 543.917114,174.249710 543.710632,170.120041 
z"/>
<path fill="#000000" opacity="1.000000" stroke="none" 
	d="
M538.206055,112.058136 
	C542.502014,112.077034 546.330017,112.051918 550.155579,112.136513 
	C552.320129,112.184395 554.154297,112.775902 554.125793,115.509033 
	C554.095703,118.392708 552.117249,118.515411 549.986328,118.519180 
	C545.674255,118.526802 541.375671,119.327766 537.045532,118.539658 
	C534.002075,117.985725 532.183228,119.151772 532.346924,122.521202 
	C532.354980,122.686874 532.341736,122.853928 532.332947,123.020042 
	C531.819702,132.732773 531.819336,132.718018 541.409973,132.542435 
	C543.404236,132.505936 545.401184,132.648529 547.397217,132.662918 
	C549.643127,132.679108 551.346680,133.201981 551.257996,135.986450 
	C551.176331,138.550964 549.415100,138.899918 547.494507,138.928650 
	C541.505188,139.018234 535.514832,139.064499 529.524841,139.064850 
	C523.534790,139.065216 517.544617,138.997086 511.554657,138.944153 
	C509.399170,138.925095 507.485077,138.534271 507.431580,135.776413 
	C507.375549,132.888962 509.413971,132.708588 511.516815,132.691452 
	C514.844299,132.664322 518.184570,132.499207 521.496399,132.726959 
	C524.981201,132.966629 526.215698,131.266312 526.578613,128.123856 
	C527.510986,120.049690 526.302002,118.591248 518.126709,118.440285 
	C514.966003,118.381920 511.803680,118.415451 508.642273,118.386948 
	C506.664185,118.369118 504.967316,117.998398 504.859894,115.477150 
	C504.753815,112.986275 506.374237,112.283745 508.351959,112.215660 
	C512.506958,112.072601 516.673889,111.930115 520.824219,112.090385 
	C525.228027,112.260429 526.894836,110.259476 526.461670,106.050972 
	C526.343689,104.905357 526.347534,103.721390 526.493469,102.580338 
	C526.724121,100.776764 527.987976,100.036263 529.679016,100.139275 
	C531.166138,100.229866 532.180420,101.034218 532.270996,102.636642 
	C532.346008,103.964165 532.487183,105.312675 532.341797,106.623344 
	C531.885742,110.734589 533.601440,112.566833 538.206055,112.058136 
z"/>
<path fill="#000000" opacity="1.000000" stroke="none" 
	d="
M311.379456,150.940475 
	C311.232269,164.518326 310.750732,162.936157 322.846802,163.054001 
	C328.168365,163.105850 333.491119,163.063156 338.812042,163.146301 
	C340.902161,163.178955 342.934174,163.559570 342.958679,166.329514 
	C342.984528,169.255310 340.849213,169.284805 338.784851,169.288025 
	C329.138428,169.303070 319.490021,169.185318 309.846588,169.356552 
	C306.145905,169.422287 305.487762,167.800232 305.546967,164.501541 
	C305.746918,153.361725 305.967499,142.205276 305.567566,131.077209 
	C305.263519,122.617828 305.719757,114.190605 305.755890,105.750595 
	C305.765381,103.536163 303.990356,99.677238 308.350830,99.544937 
	C312.740448,99.411751 311.251617,103.254379 311.272858,105.546036 
	C311.411682,120.513290 311.363556,135.482285 311.379456,150.940475 
z"/>
<path fill="#000000" opacity="1.000000" stroke="none" 
	d="
M364.277496,117.685768 
	C361.387573,111.914001 358.627991,106.491882 356.699097,100.636818 
	C360.420929,98.577629 362.566711,99.401390 364.162628,102.877953 
	C371.026367,117.830078 378.034088,132.716095 384.914764,147.660522 
	C385.522369,148.980255 385.852478,150.546127 385.865997,152.001831 
	C385.953918,161.478271 385.963928,170.956223 385.888763,180.432800 
	C385.872040,182.542786 385.918762,185.066101 382.744690,185.099564 
	C379.518188,185.133591 379.679291,182.727554 379.675507,180.522629 
	C379.665833,174.869324 379.282135,169.183777 379.751312,163.569916 
	C380.528198,154.275085 378.185669,145.951157 373.801208,137.852554 
	C370.326538,131.434540 367.539734,124.644112 364.277496,117.685768 
z"/>
<path fill="#000000" opacity="1.000000" stroke="none" 
	d="
M400.229584,185.140961 
	C396.609589,184.277847 397.224945,181.638046 397.215820,179.410782 
	C397.180481,170.772202 397.293091,162.132751 397.219940,153.494736 
	C397.198334,150.938995 397.521973,148.560333 398.610260,146.228409 
	C405.371613,131.740952 412.119995,117.247192 418.789825,102.717499 
	C420.368347,99.278702 422.617981,98.480988 426.614441,100.302345 
	C424.289276,105.580986 422.131134,110.720757 419.778900,115.770088 
	C414.927734,126.183784 410.022614,136.573196 405.024811,146.917084 
	C403.829132,149.391846 403.245117,151.863052 403.265228,154.595001 
	C403.327759,163.091858 403.313782,171.589737 403.252441,180.086670 
	C403.237610,182.138397 403.847046,184.663208 400.229584,185.140961 
z"/>
<path fill="#000000" opacity="1.000000" stroke="none" 
	d="
M406.388794,106.254639 
	C401.792816,117.106667 397.338593,127.599731 392.884338,138.092789 
	C392.300568,138.167603 391.716827,138.242416 391.133057,138.317230 
	C385.777222,125.846367 380.421417,113.375511 374.989563,100.727638 
	C378.829102,98.654160 381.196442,98.866837 382.724701,102.966927 
	C384.579681,107.943626 386.829315,112.773506 388.919769,117.661949 
	C389.624451,119.309761 390.084412,121.143379 392.627258,122.285675 
	C395.968384,116.228561 398.293304,109.718010 400.791260,103.314507 
	C402.152588,99.824730 404.115692,98.560631 407.674988,100.250099 
	C408.545715,102.400383 407.136017,104.070999 406.388794,106.254639 
z"/>
<path fill="#000000" opacity="1.000000" stroke="none" 
	d="
M500.327759,149.947144 
	C503.189880,154.494934 503.546997,159.554810 505.120300,164.227524 
	C505.706757,165.969360 505.713867,167.825485 503.141510,168.456284 
	C500.786041,169.033905 499.727661,167.939621 499.165161,165.935730 
	C498.095215,162.123978 496.977081,158.322861 496.034332,154.479218 
	C495.239288,151.237823 496.167053,149.213470 500.327759,149.947144 
z"/>
<path fill="#000000" opacity="1.000000" stroke="none" 
	d="
M480.949097,158.935089 
	C480.243713,161.562988 479.736023,163.831985 479.082489,166.058151 
	C478.598755,167.706100 477.921509,169.269150 475.642456,168.665878 
	C473.527618,168.106064 472.470398,166.809647 473.057220,164.632339 
	C474.179474,160.468231 475.434937,156.340195 476.614227,152.191238 
	C477.159119,150.274216 478.333191,149.401642 480.323029,149.912018 
	C482.368591,150.436707 482.838501,151.877670 482.376221,153.750015 
	C481.978546,155.360764 481.517334,156.955811 480.949097,158.935089 
z"/>
</svg>